<?xml version="1.0" encoding="iso-8859-1"?>
<!-- Generator: Adobe Illustrator 19.0.0, SVG Export Plug-In . SVG Version: 6.00 Build 0)  -->
<svg version="1.1" id="Layer_1" xmlns="http://www.w3.org/2000/svg" xmlns:xlink="http://www.w3.org/1999/xlink" x="0px" y="0px"
	 viewBox="0 0 512 512" style="enable-background:new 0 0 512 512;" xml:space="preserve">
<path style="fill:#DC85A6;" d="M256.001,0c-38.196,0-69.268,31.075-69.268,69.268c0,38.194,31.072,69.268,69.268,69.268
	s69.268-31.074,69.268-69.268C325.269,31.075,294.195,0,256.001,0z"/>
<path style="fill:#385C8E;" d="M109.748,419.649c-3.704,0-7.458-0.893-10.944-2.775c-11.223-6.056-15.411-20.062-9.356-31.285
	l49.838-92.357c6.059-11.223,20.065-15.411,31.285-9.356c11.223,6.057,15.411,20.065,9.356,31.285l-49.838,92.357
	C125.914,415.254,117.96,419.649,109.748,419.649z"/>
<path style="fill:#385C8E;" d="M402.252,419.649c-8.214,0-16.166-4.395-20.34-12.131l-49.838-92.357
	c-6.056-11.22-1.867-25.227,9.356-31.285c11.22-6.052,25.229-1.867,31.285,9.356l49.838,92.357
	c6.056,11.223,1.867,25.23-9.356,31.285C409.711,418.756,405.954,419.649,402.252,419.649z"/>
<g>
	<path style="fill:#D6E5F6;" d="M256.001,184.715c-65.885,0-119.484,53.598-119.484,119.481c0,12.753,10.338,23.089,23.089,23.089
		h192.79c12.751,0,23.089-10.336,23.089-23.089C375.485,238.313,321.884,184.715,256.001,184.715z"/>
	<path style="fill:#D6E5F6;" d="M194.429,373.464H25.107c-12.751,0-23.089,10.339-23.089,23.089v92.357
		C2.018,501.664,12.356,512,25.107,512h169.322c12.751,0,23.089-10.336,23.089-23.089v-92.357
		C217.519,383.803,207.181,373.464,194.429,373.464z"/>
</g>
<path style="fill:#A4C6EC;" d="M486.893,373.464H317.571c-12.751,0-23.089,10.339-23.089,23.089v92.357
	c0,12.753,10.338,23.089,23.089,23.089h169.322c12.751,0,23.089-10.336,23.089-23.089v-92.357
	C509.982,383.803,499.646,373.464,486.893,373.464z"/>
<path style="fill:#CE5C82;" d="M325.269,69.268C325.269,31.074,294.195,0,256.001,0v138.536
	C294.195,138.536,325.269,107.462,325.269,69.268z"/>
<path style="fill:#A4C6EC;" d="M256.001,184.715v142.571h96.395c12.751,0,23.089-10.336,23.089-23.089
	C375.485,238.313,321.884,184.715,256.001,184.715z"/>
<g>
</g>
<g>
</g>
<g>
</g>
<g>
</g>
<g>
</g>
<g>
</g>
<g>
</g>
<g>
</g>
<g>
</g>
<g>
</g>
<g>
</g>
<g>
</g>
<g>
</g>
<g>
</g>
<g>
</g>
</svg>
